HIERARCHY
ROOT Hips
{
	OFFSET 0.000000 0.000000 0.000000
	CHANNELS 6 Xposition Yposition Zposition Xrotation Yrotation Zrotation
	JOINT LeftUpLeg_virtual
	{
		OFFSET 0.000000 0.000000 0.000000
		CHANNELS 3 Xrotation Yrotation Zrotation
		JOINT LeftUpLeg
		{
			OFFSET 11.394100 -6.187798 -0.413800
			CHANNELS 3 Xrotation Yrotation Zrotation
			JOINT LeftLeg
			{
				OFFSET 0.430247 -32.302673 3.732800
				CHANNELS 3 Xrotation Yrotation Zrotation
				JOINT LeftFoot
				{
					OFFSET -0.430247 -48.264931 -6.423300
					CHANNELS 3 Xrotation Yrotation Zrotation
					JOINT LeftToeBase
					{
						OFFSET 4.230900 -16.068199 23.438400
						CHANNELS 3 Xrotation Yrotation Zrotation
						JOINT LeftToe_End
						{
							OFFSET 4.510700 0.695400 19.974600
							CHANNELS 3 Xrotation Yrotation Zrotation
							End Site
							{
								OFFSET 0 0 0
							}
						}
					}
				}
			}
		}
	}
	JOINT RightUpLeg_virtual
	{
		OFFSET 0.000000 0.000000 0.000000
		CHANNELS 3 Xrotation Yrotation Zrotation
		JOINT RightUpLeg
		{
			OFFSET -11.333700 -6.187798 -0.413800
			CHANNELS 3 Xrotation Yrotation Zrotation
			JOINT RightLeg
			{
				OFFSET -0.430392 -32.302628 3.733000
				CHANNELS 3 Xrotation Yrotation Zrotation
				JOINT RightFoot
				{
					OFFSET 0.430392 -48.264973 -6.423500
					CHANNELS 3 Xrotation Yrotation Zrotation
					JOINT RightToeBase
					{
						OFFSET -4.230900 -16.068199 23.438400
						CHANNELS 3 Xrotation Yrotation Zrotation
						JOINT RightToe_End
						{
							OFFSET -4.510700 0.695400 19.974600
							CHANNELS 3 Xrotation Yrotation Zrotation
							End Site
							{
								OFFSET 0 0 0
							}
						}
					}
				}
			}
		}
	}
	JOINT Spine_virtual
	{
		OFFSET 0.000000 0.000000 0.000000
		CHANNELS 3 Xrotation Yrotation Zrotation
		JOINT Spine
		{
			OFFSET -0.002400 12.777504 0.315300
			CHANNELS 3 Xrotation Yrotation Zrotation
			JOINT Spine1
			{
				OFFSET -0.002067 5.816869 0.032633
				CHANNELS 3 Xrotation Yrotation Zrotation
				JOINT Spine1_split
				{
					OFFSET -0.002067 5.816869 0.032633
					CHANNELS 3 Xrotation Yrotation Zrotation
					JOINT Spine2
					{
						OFFSET -0.002067 5.816869 0.032633
						CHANNELS 3 Xrotation Yrotation Zrotation
						JOINT Neck_virtual
						{
							OFFSET 0.000000 0.000000 0.000000
							CHANNELS 3 Xrotation Yrotation Zrotation
							JOINT Neck
							{
								OFFSET -0.003700 21.199493 -0.826900
								CHANNELS 3 Xrotation Yrotation Zrotation
								JOINT Head
								{
									OFFSET 0.000000 20.442200 4.834800
									CHANNELS 3 Xrotation Yrotation Zrotation
									JOINT HeadTop_End
									{
										OFFSET 0.000000 34.668396 4.968400
										CHANNELS 3 Xrotation Yrotation Zrotation
										End Site
										{
											OFFSET 0 0 0
										}
									}
								}
							}
						}
						JOINT LeftShoulder_virtual
						{
							OFFSET 0.000000 0.000000 0.000000
							CHANNELS 3 Xrotation Yrotation Zrotation
							JOINT LeftShoulder
							{
								OFFSET 3.288150 8.794197 -1.372250
								CHANNELS 3 Xrotation Yrotation Zrotation
								JOINT LeftShoulder_split
								{
									OFFSET 3.288150 8.794197 -1.372250
									CHANNELS 3 Xrotation Yrotation Zrotation
									JOINT LeftArm
									{
										OFFSET 11.953299 -2.279007 -0.146200
										CHANNELS 3 Xrotation Yrotation Zrotation
										JOINT LeftForeArm
										{
											OFFSET 18.448900 0.000000 0.000000
											CHANNELS 3 Xrotation Yrotation Zrotation
											JOINT LeftHand
											{
												OFFSET 29.527798 0.000000 0.000000
												CHANNELS 3 Xrotation Yrotation Zrotation
												End Site
												{
													OFFSET 0 0 0
												}
											}
										}
									}
								}
							}
						}
						JOINT RightShoulder_virtual
						{
							OFFSET 0.000000 0.000000 0.000000
							CHANNELS 3 Xrotation Yrotation Zrotation
							JOINT RightShoulder
							{
								OFFSET -3.249400 8.794197 -1.372250
								CHANNELS 3 Xrotation Yrotation Zrotation
								JOINT RightShoulder_split
								{
									OFFSET -3.249400 8.794197 -1.372250
									CHANNELS 3 Xrotation Yrotation Zrotation
									JOINT RightArm
									{
										OFFSET -11.953299 -2.279007 -0.146200
										CHANNELS 3 Xrotation Yrotation Zrotation
										JOINT RightForeArm
										{
											OFFSET -18.448900 0.000000 0.000000
											CHANNELS 3 Xrotation Yrotation Zrotation
											JOINT RightHand
											{
												OFFSET -29.527802 0.000000 0.000000
												CHANNELS 3 Xrotation Yrotation Zrotation
												End Site
												{
													OFFSET 0 0 0
												}
											}
										}
									}
								}
							}
						}
					}
				}
			}
		}
	}
}
MOTION
Frames: 9
Frame Time: 0.03333333
1.094579 91.908813 1.053230 0.000000 0.000000 0.000000 4.856875 -3.461512 -1.083791 -44.661381 4.112600 19.055845 55.976925 11.630623 -0.823643 17.167667 3.106420 -8.748521 -36.278669 2.373111 -8.256309 0.000000 0.000000 0.000000 4.189086 -3.558852 -0.943812 -34.032224 -8.980503 2.821585 36.729496 -6.129145 -1.780457 -16.118137 -3.536706 -5.279656 7.971554 -0.684443 -1.277142 0.000000 0.000000 0.000000 5.095491 -5.200763 -0.810037 9.572940 3.306260 6.671295 6.549267 1.255451 0.900984 1.048161 -0.539711 0.246902 0.000000 0.000000 0.000000 7.225375 1.176890 0.867848 1.960887 -1.373257 -1.145070 -1.811751 -3.962659 -0.804023 0.000000 0.000000 0.000000 7.206279 1.191766 0.775153 2.426516 -7.906586 -12.995299 -1.115067 -1.875373 -1.334302 -24.142847 0.529264 -67.511652 -1.105935 -30.936532 -1.123605 0.000000 0.000000 0.000000 7.187921 1.057829 0.828186 3.822050 17.374912 6.530184 1.018077 3.445659 -2.259828 -12.061676 2.632640 67.322333 -0.262470 21.913842 0.088600 0.000000 0.000000 0.000000 
0.866687 92.109444 1.468258 0.000000 0.000000 0.000000 4.796389 -3.751998 -1.075099 -45.657117 4.695606 18.681028 54.443615 10.804167 -0.014251 17.572793 1.635673 -9.871894 -35.574064 2.331202 -7.866558 0.000000 0.000000 0.000000 4.392477 -3.910969 -0.844903 -33.609104 -8.377260 2.924412 37.848636 -6.079217 -1.723509 -16.414519 -3.431778 -5.050737 8.062596 -0.710362 -1.449540 0.000000 0.000000 0.000000 5.365426 -4.837727 -0.638917 9.371048 3.401716 6.797695 6.488667 1.300079 0.900122 0.829613 -0.423224 0.291576 0.000000 0.000000 0.000000 7.212638 1.211072 0.856692 2.148106 -1.429184 -1.260442 -1.779104 -4.195135 -0.743594 0.000000 0.000000 0.000000 7.174479 1.234659 0.758679 2.447566 -7.970146 -13.241380 -0.921820 -1.679942 -1.306686 -24.264143 0.551448 -67.925705 -0.982515 -31.385682 -1.046879 0.000000 0.000000 0.000000 7.181516 1.109251 0.824074 3.760857 17.534316 6.815188 0.823519 3.333234 -2.239628 -11.725340 2.144164 66.966385 -0.220259 21.447342 0.146836 0.000000 0.000000 0.000000 
0.614128 92.483551 2.067726 0.000000 0.000000 0.000000 4.632580 -4.081789 -0.493983 -45.586284 6.258018 17.074810 50.843891 10.192633 0.571220 15.599399 0.438879 -9.789486 -34.216198 1.445050 -5.471455 0.000000 0.000000 0.000000 4.454173 -4.311010 -0.256086 -33.055066 -7.082674 2.711284 39.061148 -6.125151 -1.752047 -16.580433 -3.066019 -4.619123 7.735392 -0.689523 -1.628357 0.000000 0.000000 0.000000 5.436072 -4.541124 -0.001353 9.255508 3.531601 6.731702 6.355862 1.438539 0.856072 0.630225 -0.200863 0.262464 0.000000 0.000000 0.000000 7.095578 1.330116 0.820372 2.331149 -1.439846 -1.656971 -1.678901 -4.463016 -0.946454 0.000000 0.000000 0.000000 7.027107 1.354501 0.737509 2.429354 -7.947174 -13.506097 -0.801853 -1.239052 -1.262734 -23.839824 0.431959 -68.389236 -0.712765 -31.963031 -0.882522 0.000000 0.000000 0.000000 7.075996 1.235222 0.790950 3.670743 17.482726 7.137059 0.749380 3.273170 -2.320694 -11.170635 0.837291 66.362862 -0.161262 21.344538 0.251030 0.000000 0.000000 0.000000 
0.368514 92.911324 2.932766 0.000000 0.000000 0.000000 4.541234 -4.326994 0.583355 -45.216368 8.072197 14.725644 46.505409 9.972273 0.779586 12.464852 -0.204462 -8.903804 -27.614544 0.771618 -4.010716 0.000000 0.000000 0.000000 4.566433 -4.720732 0.749639 -32.476747 -5.405045 2.109610 39.723994 -6.213730 -1.895606 -16.750366 -2.448495 -4.063728 7.417688 -0.577079 -1.712251 0.000000 0.000000 0.000000 5.344546 -4.343118 0.973181 9.268935 3.646398 6.444843 6.170488 1.619823 0.804643 0.443486 -0.096777 0.193528 0.000000 0.000000 0.000000 6.893831 1.495167 0.784964 2.468582 -1.379408 -2.191027 -1.482981 -4.686672 -1.389243 0.000000 0.000000 0.000000 6.802985 1.504936 0.729991 2.388539 -7.797967 -13.724198 -0.757316 -0.587017 -1.187823 -22.889374 0.054192 -68.800762 -0.405967 -32.402452 -0.716298 0.000000 0.000000 0.000000 6.876480 1.390454 0.756127 3.583994 17.174804 7.464134 0.688075 3.195240 -2.307085 -10.482196 -0.994528 65.699446 -0.066012 21.595709 0.359271 0.000000 0.000000 0.000000 
0.155534 93.358414 4.016590 0.000000 0.000000 0.000000 4.575104 -4.353864 1.927181 -45.975011 9.525811 12.499244 42.420806 9.839317 0.566740 10.731704 -0.599944 -8.277993 -16.357798 0.611105 -4.256211 0.000000 0.000000 0.000000 4.859681 -5.061567 1.985681 -31.709235 -3.680404 1.250785 39.540385 -6.396301 -2.126502 -16.926240 -1.682958 -3.549387 7.619794 -0.399365 -1.549961 0.000000 0.000000 0.000000 5.298567 -4.231605 2.062587 9.348445 3.719281 5.948226 5.979103 1.801378 0.772289 0.454111 -0.159362 0.093378 0.000000 0.000000 0.000000 6.631628 1.666128 0.769246 2.517255 -1.285559 -2.694328 -1.173382 -4.808659 -1.970793 0.000000 0.000000 0.000000 6.548916 1.648716 0.741637 2.338664 -7.514185 -13.848374 -0.915546 0.035776 -1.116874 -21.552684 -0.575646 -69.012136 -0.212410 -32.709718 -0.621333 0.000000 0.000000 0.000000 6.604900 1.557079 0.747604 3.523618 16.668172 7.815277 0.668343 3.200227 -2.259093 -9.815956 -3.142433 65.161589 0.073705 22.072031 0.434576 0.000000 0.000000 0.000000 
-0.129898 93.755905 5.350716 0.000000 0.000000 0.000000 4.785743 -4.297013 3.307133 -46.728295 10.236390 10.373607 37.790235 9.663017 0.359001 10.835446 -0.799905 -7.570313 -7.254196 0.340346 -3.802713 0.000000 0.000000 0.000000 5.229750 -5.104132 3.270661 -30.767762 -2.279736 0.251027 38.571284 -6.706983 -2.353857 -16.972305 -0.988053 -3.014822 8.213568 -0.207156 -1.141619 0.000000 0.000000 0.000000 5.344379 -3.999051 3.065568 9.442222 3.747997 5.257218 5.802298 1.941046 0.748297 0.607581 -0.402289 -0.011938 0.000000 0.000000 0.000000 6.353012 1.820973 0.756965 2.449610 -1.192635 -3.007974 -0.712558 -4.831969 -2.560636 0.000000 0.000000 0.000000 6.310904 1.769660 0.752526 2.289969 -7.145922 -13.860312 -1.026025 0.569385 -1.018174 -20.082269 -1.402517 -68.876618 -0.175244 -32.949003 -0.622765 0.000000 0.000000 0.000000 6.282209 1.723259 0.770441 3.486762 16.033507 8.212307 0.733941 3.293599 -2.250491 -9.224757 -5.280639 64.885923 0.258781 22.595480 0.448028 0.000000 0.000000 0.000000 
-0.458378 94.156837 6.927578 0.000000 0.000000 0.000000 5.085777 -4.101277 4.482820 -46.576648 10.009452 8.074566 32.171619 9.698694 0.323708 11.187853 -0.567592 -6.185817 -3.127816 0.133002 -2.555875 0.000000 0.000000 0.000000 5.631007 -4.944651 4.398127 -29.615649 -1.479206 -0.715365 36.989586 -7.201197 -2.531342 -16.901890 -0.539150 -2.378018 8.437125 -0.071349 -0.594516 0.000000 0.000000 0.000000 5.448039 -3.794957 3.838425 9.472729 3.784203 4.468803 5.650991 2.051984 0.722332 0.853854 -0.597234 0.126764 0.000000 0.000000 0.000000 6.088356 1.980877 0.724405 2.195892 -1.129365 -3.076093 -0.111203 -4.867171 -2.954413 0.000000 0.000000 0.000000 6.088566 1.882137 0.736890 2.236893 -6.781642 -13.797841 -0.927519 0.910363 -0.767884 -18.609504 -2.220303 -68.283197 -0.196133 -33.239648 -0.658609 0.000000 0.000000 0.000000 5.925401 1.884939 0.780097 3.454544 15.318733 8.682365 0.742463 3.400529 -2.288239 -8.632084 -7.231309 64.875008 0.463317 23.066886 0.411862 0.000000 0.000000 0.000000 
-0.696700 94.589378 8.423492 0.000000 0.000000 0.000000 5.319484 -3.714232 5.202782 -45.829111 9.177771 6.073656 26.380163 10.099786 0.325296 10.720509 0.127475 -4.257389 -2.308839 0.103793 -1.761825 0.000000 0.000000 0.000000 5.901047 -4.770893 5.136741 -28.008646 -1.355081 -1.426608 35.104338 -7.803776 -2.678695 -16.991629 -0.274688 -1.692071 8.010547 -0.051093 -0.109286 0.000000 0.000000 0.000000 5.623982 -3.777089 4.235261 9.364067 3.891400 3.726726 5.541433 2.175566 0.662095 0.957619 -0.675709 0.334933 0.000000 0.000000 0.000000 5.844739 2.163567 0.628680 1.742039 -1.137987 -2.941423 0.607584 -5.032752 -2.976644 0.000000 0.000000 0.000000 5.872773 2.005970 0.665603 2.171595 -6.481198 -13.681761 -0.763707 1.024575 -0.427215 -17.144833 -2.899587 -67.162275 -0.164748 -33.595426 -0.644737 0.000000 0.000000 0.000000 5.566810 2.058772 0.735066 3.388247 14.554790 9.271877 0.767339 3.425492 -2.418380 -7.966725 -8.867450 65.011994 0.643130 23.640442 0.348236 0.000000 0.000000 0.000000 
-0.784556 95.004425 9.894493 0.000000 0.000000 0.000000 5.454608 -3.306751 5.353211 -45.017883 7.915145 4.785205 21.873382 10.513921 0.236137 10.429377 0.959046 -2.836912 -1.103214 0.213084 -2.120565 0.000000 0.000000 0.000000 6.030005 -4.664095 5.389945 -25.820869 -1.747243 -1.882059 33.095931 -8.359345 -2.783197 -17.436315 -0.075760 -1.032654 7.576979 -0.096123 0.087194 0.000000 0.000000 0.000000 5.740947 -3.882832 4.273619 9.117910 4.080414 3.085822 5.478911 2.325014 0.557276 0.850091 -0.778548 0.531106 0.000000 0.000000 0.000000 5.642967 2.369717 0.446430 1.166274 -1.152841 -2.711232 1.446816 -5.454793 -2.562539 0.000000 0.000000 0.000000 5.661835 2.153944 0.521199 2.079595 -6.278625 -13.521386 -0.576032 1.093468 -0.196476 -15.774957 -3.471071 -65.525584 -0.010824 -33.750239 -0.537270 0.000000 0.000000 0.000000 5.260756 2.230660 0.621126 3.278783 13.661731 9.934758 0.734728 3.247059 -2.686435 -7.085965 -9.951938 65.164349 0.785760 24.533771 0.270507 0.000000 0.000000 0.000000 
